<?xml version="1.0" encoding="UTF-8" standalone="no"?>
<!-- Generator: Adobe Illustrator 19.0.0, SVG Export Plug-In . SVG Version: 6.00 Build 0)  -->

<svg
   xmlns:dc="http://purl.org/dc/elements/1.1/"
   xmlns:cc="http://creativecommons.org/ns#"
   xmlns:rdf="http://www.w3.org/1999/02/22-rdf-syntax-ns#"
   xmlns:svg="http://www.w3.org/2000/svg"
   xmlns="http://www.w3.org/2000/svg"
   xmlns:sodipodi="http://sodipodi.sourceforge.net/DTD/sodipodi-0.dtd"
   xmlns:inkscape="http://www.inkscape.org/namespaces/inkscape"
   version="1.1"
   id="Layer_1"
   x="0px"
   y="0px"
   viewBox="0 0 700 700"
   xml:space="preserve"
   sodipodi:docname="comfort-logo.svg"
   width="700"
   height="700"
   inkscape:version="0.92.4 (5da689c313, 2019-01-14)"
   inkscape:export-filename="C:\Users\suitedoalex\sites\comfort-logo-0.png"
   inkscape:export-xdpi="561.73712"
   inkscape:export-ydpi="561.73712"><metadata
   id="metadata2683"><rdf:RDF><cc:Work
       rdf:about=""><dc:format>image/svg+xml</dc:format><dc:type
         rdf:resource="http://purl.org/dc/dcmitype/StillImage" /><dc:title></dc:title></cc:Work></rdf:RDF></metadata><defs
   id="defs2681" /><sodipodi:namedview
   pagecolor="#ffffff"
   bordercolor="#666666"
   borderopacity="1"
   objecttolerance="10"
   gridtolerance="10"
   guidetolerance="10"
   inkscape:pageopacity="0"
   inkscape:pageshadow="2"
   inkscape:window-width="1920"
   inkscape:window-height="1017"
   id="namedview2679"
   showgrid="false"
   inkscape:zoom="0.42140707"
   inkscape:cx="90.875834"
   inkscape:cy="121.53924"
   inkscape:window-x="-8"
   inkscape:window-y="-8"
   inkscape:window-maximized="1"
   inkscape:current-layer="XMLID_2678_" />
<style
   type="text/css"
   id="style2">
	.st0{fill:#010101;}
	.st1{fill:#0E0E0E;}
	.st2{fill:#181818;}
	.st3{fill:#212121;}
	.st4{fill:#222221;}
	.st5{fill:#1F1F1F;}
	.st6{fill:#202020;}
	.st7{fill:#272727;}
	.st8{fill:#282827;}
	.st9{fill:#282828;}
	.st10{fill:#292929;}
	.st11{fill:#2B2B2A;}
	.st12{fill:#292928;}
	.st13{fill:#222222;}
	.st14{fill:#272726;}
	.st15{fill:#262626;}
	.st16{fill:#2D2D2C;}
	.st17{fill:#303030;}
	.st18{fill:#2B2A2A;}
	.st19{fill:#2F2F2F;}
	.st20{fill:#2D2D2D;}
	.st21{fill:#2E2E2E;}
	.st22{fill:#2C2C2C;}
	.st23{fill:#2B2B2B;}
	.st24{fill:#343434;}
	.st25{fill:#333333;}
	.st26{fill:#363636;}
	.st27{fill:#2F2F2E;}
	.st28{fill:#2E2D2D;}
	.st29{fill:#2F2E2E;}
	.st30{fill:#323232;}
	.st31{fill:#353535;}
	.st32{fill:#2E2E2D;}
	.st33{fill:#3B3B3B;}
	.st34{fill:#3C3C3C;}
	.st35{fill:#373737;}
	.st36{fill:#353534;}
	.st37{fill:#3E3E3E;}
	.st38{fill:#383838;}
	.st39{fill:#393939;}
	.st40{fill:#3A3A3A;}
	.st41{fill:#353434;}
	.st42{fill:#343433;}
	.st43{fill:#363635;}
	.st44{fill:#404040;}
	.st45{fill:#444444;}
	.st46{fill:#454545;}
	.st47{fill:#424242;}
	.st48{fill:#3D3D3C;}
	.st49{fill:#3D3D3D;}
	.st50{fill:#424141;}
	.st51{fill:#464646;}
	.st52{fill:#414141;}
	.st53{fill:#434343;}
	.st54{fill:#3F3F3F;}
	.st55{fill:#444344;}
	.st56{fill:#474747;}
	.st57{fill:#484848;}
	.st58{fill:#4B4A4B;}
	.st59{fill:#4C4C4C;}
	.st60{fill:#4D4D4D;}
	.st61{fill:#515151;}
	.st62{fill:#4B4B4B;}
	.st63{fill:#4E4E4E;}
	.st64{fill:#4C4C4D;}
	.st65{fill:#4A4A4A;}
	.st66{fill:#4F4F4F;}
	.st67{fill:#484748;}
	.st68{fill:#555555;}
	.st69{fill:#4E4E4F;}
	.st70{fill:#4D4C4D;}
	.st71{fill:#545454;}
	.st72{fill:#5C5D5D;}
	.st73{fill:#535353;}
	.st74{fill:#535352;}
	.st75{fill:#525252;}
	.st76{fill:#575757;}
	.st77{fill:#565656;}
	.st78{fill:#5A5A5A;}
	.st79{fill:#555554;}
	.st80{fill:#5C5C5C;}
	.st81{fill:#5F5F5F;}
	.st82{fill:#5E5E5E;}
	.st83{fill:#646565;}
	.st84{fill:#585858;}
	.st85{fill:#555655;}
	.st86{fill:#5D5D5D;}
	.st87{fill:#616161;}
	.st88{fill:#565756;}
	.st89{fill:#646464;}
	.st90{fill:#606161;}
	.st91{fill:#656565;}
	.st92{fill:#606060;}
	.st93{fill:#5B5C5C;}
	.st94{fill:#5B5B5B;}
	.st95{fill:#686868;}
	.st96{fill:#5A5B5B;}
	.st97{fill:#676868;}
	.st98{fill:#686969;}
	.st99{fill:#696969;}
	.st100{fill:#6A6A6A;}
	.st101{fill:#6B6B6B;}
	.st102{fill:#6F6F6F;}
	.st103{fill:#626363;}
	.st104{fill:#676767;}
	.st105{fill:#6C6C6C;}
	.st106{fill:#626262;}
	.st107{fill:#5F6060;}
	.st108{fill:#666666;}
	.st109{fill:#6E6E6E;}
	.st110{fill:#707070;}
	.st111{fill:#717171;}
	.st112{fill:#747474;}
	.st113{fill:#7B7A7B;}
	.st114{fill:#727272;}
	.st115{fill:#696A6A;}
	.st116{fill:#6A6B6B;}
	.st117{fill:#757575;}
	.st118{fill:#707171;}
	.st119{fill:#6F6F70;}
	.st120{fill:#787878;}
	.st121{fill:#767676;}
	.st122{fill:#737373;}
	.st123{fill:#7A797A;}
	.st124{fill:#797979;}
	.st125{fill:#7B7B7B;}
	.st126{fill:#707071;}
	.st127{fill:#838383;}
	.st128{fill:#7A7A7A;}
	.st129{fill:#7C7C7C;}
	.st130{fill:#838484;}
	.st131{fill:#828282;}
	.st132{fill:#7D7D7D;}
	.st133{fill:#7F7F7F;}
	.st134{fill:#7D7C7D;}
	.st135{fill:#7E7E7E;}
	.st136{fill:#777777;}
	.st137{fill:#828383;}
	.st138{fill:#848484;}
	.st139{fill:#8F8E8E;}
	.st140{fill:#898889;}
	.st141{fill:#8F8F8F;}
	.st142{fill:#909090;}
	.st143{fill:#848585;}
	.st144{fill:#838384;}
	.st145{fill:#858585;}
	.st146{fill:#8E8E8E;}
	.st147{fill:#908F8F;}
	.st148{fill:#828283;}
	.st149{fill:#8E8D8D;}
	.st150{fill:#8D8D8D;}
	.st151{fill:#979797;}
	.st152{fill:#979696;}
	.st153{fill:#959595;}
	.st154{fill:#8D8C8C;}
	.st155{fill:#8B8B8B;}
	.st156{fill:#8B8A8A;}
	.st157{fill:#898989;}
	.st158{fill:#858586;}
	.st159{fill:#989797;}
	.st160{fill:#878787;}
	.st161{fill:#969696;}
	.st162{fill:#989898;}
	.st163{fill:#90908F;}
	.st164{fill:#8E8E8D;}
	.st165{fill:#8F8F8E;}
	.st166{fill:#8C8C8B;}
	.st167{fill:#959494;}
	.st168{fill:#A6A5A5;}
	.st169{fill:#9D9D9D;}
	.st170{fill:#9E9D9D;}
	.st171{fill:#A1A1A0;}
	.st172{fill:#9F9E9E;}
	.st173{fill:#9F9F9F;}
	.st174{fill:#9E9E9E;}
	.st175{fill:#A0A0A0;}
	.st176{fill:#A2A2A2;}
	.st177{fill:#969595;}
	.st178{fill:#959594;}
	.st179{fill:#949494;}
	.st180{fill:#A2A2A1;}
	.st181{fill:#9F9E9F;}
	.st182{fill:#AEADAE;}
	.st183{fill:#A6A6A6;}
	.st184{fill:#ADADAD;}
	.st185{fill:#A5A5A5;}
	.st186{fill:#AEAEAE;}
	.st187{fill:#ADACAC;}
	.st188{fill:#A6A6A5;}
	.st189{fill:#A09F9F;}
	.st190{fill:#A5A4A4;}
	.st191{fill:#A4A4A4;}
	.st192{fill:#A3A3A3;}
	.st193{fill:#A9A9A9;}
	.st194{fill:#ACACAC;}
	.st195{fill:#A7A7A7;}
	.st196{fill:#B5B5B5;}
	.st197{fill:#B5B5B6;}
	.st198{fill:#A7A6A6;}
	.st199{fill:#A1A0A0;}
	.st200{fill:#B3B3B4;}
	.st201{fill:#B4B4B5;}
	.st202{fill:#AFAEAF;}
	.st203{fill:#B3B3B3;}
	.st204{fill:#A8A8A8;}
	.st205{fill:#B4B4B4;}
	.st206{fill:#B0B0B0;}
	.st207{fill:#C2C1C1;}
	.st208{fill:#BBBBBB;}
	.st209{fill:#BABABA;}
	.st210{fill:#BCBCBC;}
	.st211{fill:#BCBBBB;}
	.st212{fill:#B7B7B7;}
	.st213{fill:#B9B9B9;}
	.st214{fill:#BDBCBC;}
	.st215{fill:#C0C0C0;}
	.st216{fill:#C2C2C2;}
	.st217{fill:#B6B6B6;}
	.st218{fill:#BDBDBD;}
	.st219{fill:#C9C9C9;}
	.st220{fill:#C3C3C3;}
	.st221{fill:#C3C2C2;}
	.st222{fill:#C9C9C8;}
	.st223{fill:#C8C7C7;}
	.st224{fill:#C1C1C1;}
	.st225{fill:#BFBFBF;}
	.st226{fill:#C9C8C8;}
	.st227{fill:#C0BFBF;}
	.st228{fill:#C1C0C0;}
	.st229{fill:#CAC9C9;}
	.st230{fill:#BEBEBE;}
	.st231{fill:#D1D1D1;}
	.st232{fill:#CACAC9;}
	.st233{fill:#CACACA;}
	.st234{fill:#D2D2D2;}
	.st235{fill:#C2C2C1;}
	.st236{fill:#D1D2D2;}
	.st237{fill:#D9D9D8;}
	.st238{fill:#D9D8D8;}
	.st239{fill:#D9D9D9;}
	.st240{fill:#D8D8D8;}
	.st241{fill:#DFDFDF;}
	.st242{fill:#E0E0E0;}
	.st243{fill:#E0E0DF;}
	.st244{fill:#E1E1E0;}
	.st245{fill:#DBDAD9;}
	.st246{fill:#DFDFDE;}
	.st247{fill:#DAD9D9;}
	.st248{fill:#E0DFDF;}
	.st249{fill:#E6E6E6;}
	.st250{fill:#E6E6E5;}
	.st251{fill:#E5E6E5;}
	.st252{fill:#E1E0E0;}
	.st253{fill:#E5E5E5;}
	.st254{fill:#E4E4E4;}
	.st255{fill:#ECECEC;}
	.st256{fill:#E7E7E7;}
	.st257{fill:#EBEBEB;}
	.st258{fill:#E9E9E9;}
	.st259{fill:#F2F2F2;}
	.st260{fill:#F3F3F3;}
	.st261{fill:#EFEEEE;}
	.st262{fill:#F1F1F1;}
	.st263{fill:#EDEDED;}
	.st264{fill:#F7F7F7;}
	.st265{fill:#23225B;}
	.st266{fill:#F7F7F8;}
	.st267{fill:#F0F0F0;}
	.st268{fill:#F3F3F4;}
	.st269{fill:#F4F4F4;}
	.st270{fill:#23215B;}
	.st271{fill:#F8F8F8;}
	.st272{fill:#FDFEFE;}
	.st273{fill:#FFFFFF;}
	.st274{fill:#F9F9F9;}
	.st275{fill:#FEFEFF;}
	.st276{fill:#FAFBFB;}
	.st277{fill:#F8F9F9;}
	.st278{fill:#E8E8E8;}
	.st279{fill:#EEEDED;}
	.st280{fill:#EDECED;}
	.st281{fill:#D4D4D4;}
	.st282{fill:#E8E8E7;}
	.st283{fill:#D6D6D6;}
</style>
<g
   id="XMLID_1_"
   transform="translate(0,-92)">
	<g
   id="XMLID_2678_"
   transform="translate(114.10169,3.3559322)">
		
		
		
		
		
		
		
		
		
		
		
		
		
		
		
		
		
		
		
		
		
		
		
		
		
		
		
		
		
		
		
		
		
		
		
		
		
		
		
		
		
		
		
		
		
		
		
		
		
		
		
		
		
		
		
		
		
		
		
		
		
		
		
		
		
		
		
		
		
		
		
		
		
		
		
		
		
		
		
		
		
		
		
		
		
		
		
		
		
		
		
		
		
		
		
		
		
		
		
		
		
		
		
		
		
		
		
		
		
		
		
		
		
		
		
		
		
		
		
		
		
		
		
		
		
		
		
		
		
		
		
		
		
		
		
		
		
		
		
		
		
		
		
		
		
		
		
		
		
		
		
		
		
		
		
		
		
		
		
		
		
		
		
		
		
		
		
		
		
		
		
		
		
		
		
		
		
		
		
		
		
		
		
		
		
		
		
		
		
		
		
		
		
		
		
		
		
		
		
		
		
		
		
		
		
		
		
		
		
		
		
		
		
		
		
		
		
		
		
		
		
		
		
		
		
		
		
		
		
		
		
		
		
		
		
		
		
		
		
		
		
		
		
		
		
		
		
		
		
		
		
		
		
		
		
		
		
		
		
		
		
		
		
		
		
		
		
		
		
		
		
		
		
		
		
		
		
		
		
		
		
		
		
		
		
		
		
		
		
		
		
		
		
		
		
		
		
		
		
		
		
		
		
		
		
		
		
		
		
		
		
		
		
		
		
		
		
		
		
		
		
		
		
		
		
		
		
		
		
		
		
		
		
		
		
		
		
		
		
		
		
		
		
		
		
		
		
		
		
		
		
		
		
		
		
		
		
		
		
		
		
		
		
		
		
		
		
		
		
		
		
		
		
		
		
		
		
		
		
		
		
		
		
		
		
		
		
		
		
		
		
		
		
		
		
		
		
		
		
		
		
		
		
		
		
		
		
		
		
		
		
		
		
		
		
		
		
		
		
		
		
		
		
		
		
		
		
		
		
		
		
		
		
		
		
		
		
		
		
		
		
		
		
		
		
		
		
		
		
		
		
		
		
		
		
		
		
		
		
		
		
		
		
		
		
		
		
		
		
		
		
		
		
		
		
		
		
		
		
		
		
		
		
		
		
		
		
		
		
		
		
		
		
		
		
		
		
		
		
		
		
		
		
		
		
		
		
		
		
		
		
		
		
		
		
		
		
		
		
		
		
		
		
		
		
		
		
		
		
		
		
		
		
		
		
		
		
		
		
		
		
		
		
		
		
		
		
		
		
		
		
		
		
		
		
		
		
		
		
		
		
		
		
		
		
		
		
		
		
		
		
		
		
		
		
		
		
		
		
		
		
		
		
		
		
		
		
		
		
		
		
		
		
		
		
		
		
		
		
		
		
		
		
		
		
		
		
		
		
		
		
		
		
		
		
		
		
		
		
		
		
		
		
		
		
		
		
		
		
		
		
		
		
		
		
		
		
		
		
		
		
		
		
		
		
		
		
		
		
		
		
		
		
		
		
		
		
		
		
		
		
		
		
		
		
		
		
		
		
		
		
		
		
		
		
		
		
		
		
		
		
		
		
		
		
		
		
		
		
		
		
		
		
		
		
		
		
		
		
		
		
		
		
		
		
		
		
		
		
		
		
		
		
		
		
		
		
		
		
		
		
		
		
		
		
		
		
		
		
		
		
		
		
		
		
		
		
		
		
		
		
		
		
		
		
		
		
		
		
		
		
		
		
		
		
		
		
		
		
		
		
		
		
		
		
		
		
		
		
		
		
		
		
		
		
		
		
		
		
		
		
		
		
		
		
		
		
		
		
		
		
		
		
		
		
		
		
		
		
		
		
		
		
		
		
		
		
		
		
		
		
		
		
		
		
		
		
		
		
		
		
		
		
		
		
		
		
		
		
		
		
		
		
		
		
		
		
		
		
		
		
		
		
		
		
		
		
		
		
		
		
		
		
		
		
		
		
		
		
		
		
		
		
		
		
		
		
		
		
		
		
		
		
		
		
		
		
		
		
		
		
		
		
		
		
		
		
		
		
		
		
		
		
		
		
		
		
		
		
		
		
		
		
		
		
		
		
		
		
		
		
		
		
		
		
		
		
		
		
		
		
		
		
		
		
		
		
		
		
		
		
		
		
		
		
		
		
		
		
		
		
		
		
		
		
		
		
		
		
		
		
		
		
		
		
		
		
		
		
		
		
		
		
		
		
		
		
		
		
		
		
		
		
		
		
		
		
		
		
		
		
		
		
		
		
		
		
		
		
		
		
		
		
		
		
		
		
		
		
		
		
		
		
		
		
		
		
		
		
		
		
		
		
		
		
		
		
		
		
		
		
		
		
		
		
		
		
		
		
		
		
		
		
		
		
		
		
		
		
		
		
		
		
		
		
		
		
		
		
		
		
		
		
		
		
		
		
		
		
		
		
		
		
		
		
		
		
		
		
		
		
		
		
		
		
		
		
		
		
		
		
		
		
		
		
		
		
		
		
		
		
		
		
		
		
		
		
		
		
		
		
		
		
		
		
		
		
		
		
		
		
		
		
		
		
		
		
		
		
		
		
		
		
		
		
		
		
		
		
		
		
		
		
		
		
		
		
		
		
		
		
		
		
		
		
		
		
		
		
		
		
		
		
		
		
		
		
		
		
		
		
		
		
		
		
		
		
		
		
		
		
		
		
		
		
		
		
		
		
		
		
		
		
		
		
		
		
		
		
		
		
		
		
		
		
		
		
		
		
		
		
		
		
		
		
		
		
		
		
		
		
		
		
		
		
		
		
		
		
		
		
		
		
		
		
		
		
		
		
		
		
		
		
		
		
		
		
		
		
		
		
		
		
		
		
		
		
		
		
		
		
		
		
		
		
		
		
		
		
		
		
		
		
		
		
		
		
		
		
		
		
		
		
		
		
		
		
		
		
		
		
		
		
		
		
		
		
		
		
		
		
		
		
		
		
		
		
		
		
		
		
		
		
		
		
		
		
		
		
		
		
		
		
		
		
		
		
		
		
		
		
		
		
		
		
		
		
		
		
		
		
		
		
		
		
		
		
		
		
		
		
		
		
		
		
		
		
		
		
		
		
		
		
		
		
		
		
		
		
		
		
		
		
		
		
		
		
		
		
		
		
		
		
		
		
		
		
		
		
		
		
		
		
		
		
		
		
		
		
		
		
		
		
		
		
		
		
		
		
		
		
		
		
		
		
		
		
		
		
		
		
		
		
		
		
		
		
		
		
		
		
		
		
		
		
		
		
		
		
		
		
		
		
		
		
		
		
		
		
		
		
		
		
		
		
		
		
		
		
		
		
		
		
		
		
		
		
		
		
		
		
		
		
		
		
		
		
		
		
		
		
		
		
		
		
		
		
		
		
		
		
		
		
		
		
		
		
		
		
		
		
		
		
		
		
		
		
		
		
		
		
		
		
		
		
		
		
		
		
		
		
		
		
		
		
		
		
		
		
		
		
		
		
		
		
		
		
		
		
		
		
		
		
		
		
		
		
		
		
		
		
		
		
		
		
		
		
		
		
		
		
		
		
		
		
		
		
		
		
		
		
		
		
		
		
		
		
		
		
		
		
		
		
		
		
		
		
		
		
		
		
		
		
		
		
		
		
		
		
		
		
		
		
		
		
		
		
		
		
		
		
		
		
		
		
		
		
		
		
		
		
		
		
		
		
		
		
		
		
		
		
		
		
		
		
		
		
		
		
		
		
		
		
		
		
		
		
		
		
		
		
		
		
		
		
		
		
		
		
		
		
		
		
		
		
		
		
		
		
		
		
		
		
		
		
		
		
		
		
		
		
		
		
		
		
		
		
		
		
		
		
		
		
		
		
		
		
		
		
		
		
		
		
		
		
		
		
		
		
		
		
		
		
		
		
		
		
		
		
		
		
		
		
		
		
		
		
		
		
		
		
		
		
		
		
		
		
		
		
		
		
		
		
		
		
		
		
		
		
		
		
		
		
		
		
		
		
		
		
		
		
		
		
		
		
		
		
		
		
		
		
		
		
		
		
		
		
		
		
		
		
		
		
		
		
		
		
		
		
		
		
		
		
		
		
		
		
		
		
		
		
		
		
		
		
		
		
		
		
		
		
		
		
		
		
		
		
		
		
		
		
		
		
		
		
		
		
		
		
		
		
		
		
		
		
		
		
		
		
		
		
		
		
		
		
		
		
		
		
		
		
		
		
		
		
		
		
		
		
		
		
		
		
		
		
		
		
		
		
		
		
		
		
		
		
		
		
		
		
		
		
		
		
		
		
		
		
		
		
		
		
		
		
		
		
		
		
		
		
		
		
		
		
		
		
		
		
		
		
		
		
		
		
		
		
		
		
		
		
		
		
		
		
		
		
		
		
		
		
		
		
		
		
		
		
		
		
		
		
		
		
		
		
		
		
		
		
		
		
		
		
		
		
		
		
		
		
		
		
		
		
		
		
		
		
		
		
		
		
		
		
		
		
		
		
		
		
		
		
		
		
		
		
		
		
		
		
		
		
		
		
		
		
		
		
		
		
		
		
		
		
		
		
		
		
		
		
		
		
		
		
		
		
		
		
		
		
		
		
		
		
		
		
		
		
		
		
		
		
		
		
		
		
		
		
		
		
		
		
		
		
		
		
		
		
		
		
		
		
		
		
		
		
		
		
		
		
		
		
		
		
		
		
		
		
		
		
		
		
		
		
		
		
		
		
		
		
		
		
		
		
		
		
		
		
		
		
		
		
		
		
		
		
		
		
		
		
		
		
		
		
		
		
		
		
		
		
		
		
		
		
		
		
		
		
		
		
		
		
		
		
		
		
		
		
		
		
		
		
		
		
		
		
		
		
		
		
		
		
		
		
		
		
		
		
		
		
		
		
		
		
		
		
		
		
		
		
		
		
		
		
		
		
		
		
		
		
		
		
		
		
		
		
		
		
		
		
		
		
		
		
		
		
		
		
		
		
		
		
		
		
		
		
		
		
		
		
		
		
		
		
		
		
		
		
		
		
		
		
		
		
		
		
		
		
		
		
		
		
		
		
		
		
		
		
		
		
		
		
		
		
		
		
		
		
		
		
		
		
		
		
		
		
		
		
		
		
		
		
		
		
		
		
		
		
		
		
		
		
		
		
		
		
		
		
		
		
		
		
		
		
		
		
		
		
		
		
		
		
		
		
		
		
		
		
		
		
		
		
		
		
		
		
		
		
		
		
		
		
		
		
		
		
		
		
		
		
		
		
		
		
		
		
		
		
		
		
		
		
		
		
		
		
		
		
		
		
		
		
		
		
		
		
		
		
		
		
		
		
		
		
		
		
		
		
		
		
		
		
		
		
		
		
		
		
		
		
		
		
		
		
		
		
		
		
		
		
		
		
		
		
		
		
		
		
		
		
		
		
		
		
		
		
		
		
		
		
		
		
		
		
		
		
		
		
		
		
		
		
		
		
		
		
		
		
		
		
		
		
		
		
		
		
		
		
		
		<path
   id="XMLID_2944_"
   class="st265"
   d="m 436.21462,329.41633 c 0.65545,-1.16523 1.6022,-2.03914 2.58536,-2.91307 0.36414,-1.12881 1.27447,-1.23805 2.22121,-1.31088 1.20165,0 2.4397,0 3.64134,0 0.36414,0 0.76469,0 1.12882,0.0728 10.99684,2.18479 18.46158,8.84844 23.41381,18.68006 0.61903,1.23805 1.31087,2.47611 1.82066,3.75058 0.50979,1.27447 1.12882,1.31088 2.18481,0.58261 5.02504,-3.38644 9.7952,-7.13702 14.31046,-11.21532 2.14838,-1.96632 4.29677,-3.89623 6.37233,-5.93538 1.56578,-1.52937 2.84025,-3.31362 4.22396,-4.98864 0.83751,-0.87391 1.71143,-1.71142 2.94949,-2.03914 1.12881,-0.40055 2.29404,-0.43696 3.49568,-0.18207 1.16522,0.5462 1.82067,1.49294 2.36687,2.62176 1.31088,4.66091 0.2549,9.03051 -1.6386,13.25447 -2.94949,6.48158 -7.57399,11.6887 -12.89034,16.27678 -4.26036,3.71417 -8.95769,6.84572 -14.01916,9.39466 -1.23805,0.61903 -1.82066,1.31088 -1.56577,2.84024 3.05872,16.71374 4.22395,33.68238 6.66365,50.46895 0.76469,5.24353 1.67502,10.41423 3.89623,15.29362 2.11197,4.58809 5.35276,8.04736 10.48706,8.95769 5.89897,1.05599 10.70553,-1.12881 14.4197,-5.75331 2.03915,-2.54894 3.09514,-5.60766 3.89623,-8.73922 0.43696,-1.74784 0.87392,-3.53209 1.96632,-5.06146 0.69185,-0.80109 1.52936,-1.34729 2.62176,-1.42011 1.01958,0 2.00274,-0.0364 3.02231,0.0364 1.3473,0.2549 2.4397,0.91034 3.20439,2.03916 1.63859,2.58534 1.49294,5.49841 1.05598,8.30224 -2.65818,16.16755 -12.27131,26.54537 -27.31003,32.37151 -1.92992,0.72826 -3.93265,1.16523 -5.93539,1.60218 -0.87392,0.0364 -1.74784,0.14566 -2.58535,0.40055 -0.61902,0.10924 -1.20164,0.18206 -1.82067,0.10924 -0.91034,-0.14565 -1.82067,-0.14565 -2.731,0 -0.61903,0.0728 -1.20164,0 -1.82067,-0.10924 -0.76468,-0.18207 -1.49295,-0.47337 -2.29404,-0.2913 -1.05599,-0.0364 -2.07557,-0.29131 -3.05873,-0.72827 -0.87392,-0.69186 -2.00274,-0.87393 -2.98589,-1.31088 -5.09788,-2.11199 -8.88487,-5.78973 -12.12566,-10.15934 -5.53483,-8.77562 -7.6104,-18.68006 -9.10335,-28.73016 -1.60219,-10.77836 -2.62176,-21.66596 -4.00547,-32.48073 -0.58261,-4.69733 -1.27447,-9.35824 -2.00273,-14.05557 -0.36414,-2.36687 -0.43697,-2.36687 -2.84024,-1.85708 -3.96907,0.87392 -7.97454,1.45653 -12.08925,1.23805 -3.38645,-0.18207 -6.59082,-0.91033 -9.39465,-2.98589 -0.32773,-0.36414 -0.72827,-0.65545 -1.05599,-1.056 -0.65544,-0.76467 -1.23805,-1.56576 -1.3473,-2.58534 -0.14565,-3.71417 0.61903,-4.80657 4.04189,-5.82615 0.69185,0 1.3473,-0.14565 2.00273,-0.32772 5.24354,-0.72826 10.3414,-2.00273 15.40287,-3.56851 2.03915,-0.65544 2.14838,-0.83751 1.60218,-2.84024 -1.89349,-7.13702 -4.33319,-14.01915 -8.59355,-20.1366 -0.61903,-1.12882 -1.16523,-2.29404 -1.67502,-3.49568 -0.29131,-0.83751 -0.98316,-1.67503 -0.21848,-2.62177 -0.0364,-1.16523 -0.10924,-2.36687 0.10923,-3.56851 z"
   inkscape:connector-curvature="0"
   style="fill:#23225b;stroke-width:0.36413383"
   inkscape:export-filename="C:\Users\suitedoalex\sites\comfort-logo-4.png"
   inkscape:export-xdpi="65.654289"
   inkscape:export-ydpi="65.654289" />
		
		
		
		
		
		
		
		
		
		
		
		
		
		
		
		
		
		
		
		
		
		
		
		
		
		
		
		
		
		
		
		
		
		
		
		
		
		
		
		
		
		
		
		
		
		
		
		
		<path
   style="fill:#23225b;stroke-width:0.36413383"
   d="m 320.73352,338.16875 c -2.3049,0.007 -4.61923,0.13442 -6.94059,0.35062 -10.52346,0.98316 -20.2821,4.22424 -29.16697,9.94114 -13.61861,8.77562 -22.83148,21.1923 -29.05816,35.93972 -2.91308,6.84572 -4.9161,13.94689 -6.66394,21.15675 -0.69185,2.80383 -0.69157,2.76727 -3.53181,1.85694 -4.15113,-1.34729 -8.08392,-3.27749 -11.79808,-5.57153 -1.3473,-0.8011 -2.6579,-1.71158 -4.26008,-1.96647 h -2.07599 c -1.42012,0.18206 -2.18438,1.2749 -3.02189,2.25805 -1.01958,1.74785 -1.0924,3.56852 -0.5462,5.46201 0.91034,3.31362 3.02245,5.75318 5.60781,7.86515 4.04187,3.2772 8.70265,5.20726 13.69128,6.51814 2.4397,0.65544 2.4397,0.65544 2.00274,3.09513 -3.16796,16.96864 -6.08132,34.01011 -9.39493,50.97874 -3.05873,15.47568 -6.22641,30.91453 -11.54277,45.80761 -2.76741,7.75606 -6.26352,15.11156 -11.3614,21.66596 -5.31635,6.84572 -12.12509,11.03383 -20.71865,12.23547 -1.92991,0.47337 -3.85981,0.29117 -5.82614,0.21834 -1.27447,-0.18206 -2.40328,0.6186 -3.64133,0.47295 -0.83751,0.14565 -1.63875,0.32786 -1.96647,1.2382 -0.8375,0.5826 -1.93005,0.87391 -2.51266,1.82067 -0.36414,0.36413 -0.40055,0.91018 -0.72827,1.31073 -0.32772,0.21848 -0.25504,0.58276 -0.32786,0.87407 -0.58262,1.09239 -0.36414,2.25804 -0.36414,3.35045 -0.0364,1.31088 0.58261,2.40272 1.27448,3.42229 1.74783,1.45653 3.71444,2.44027 5.93565,2.95005 1.78426,0.40055 3.60451,0.18179 5.38876,0.25461 0.29131,0.0364 0.58275,2.8e-4 0.87406,-0.0726 0.69186,-0.21848 1.42012,-0.40097 2.1848,-0.25532 0.40055,0.0364 0.76454,-0.036 1.12868,-0.10882 0.69185,-0.25489 1.42012,-0.32771 2.1848,-0.36413 6.37234,-1.23805 12.41711,-3.42285 17.98835,-6.73648 13.94634,-8.22942 24.76153,-19.6268 33.20944,-33.31824 6.55441,-10.6327 10.59615,-22.32154 13.6913,-34.37437 4.40601,-17.22353 7.10074,-34.81105 10.34153,-52.28948 1.12882,-6.0082 2.22079,-12.05339 3.38602,-18.06161 0.18207,-0.91033 0.21834,-2.00259 1.4928,-2.22107 3.31362,-0.5462 6.6638,-0.94675 9.97742,-1.45653 0.10923,0.36413 0.0366,0.54634 -0.0363,0.69199 -4.66091,7.97453 -6.22697,16.56795 -5.57153,25.70771 0.50978,7.02778 2.40356,13.61903 5.38946,19.91855 4.26037,8.9941 10.41394,16.56809 17.91511,23.12249 4.66091,4.04189 9.79534,7.28254 15.25734,10.04995 3.02231,1.52937 6.26338,2.54894 9.39494,3.82341 0.83751,0.25489 1.67501,0.47351 2.54893,0.50993 0.69186,-0.14565 1.31103,0.18164 1.96647,0.29088 0.87392,0.14566 1.74756,0.18207 2.62148,0 0.65543,-0.18206 1.27475,-0.40027 1.93019,-0.43667 0.36413,-0.0728 0.69129,-0.25489 1.05542,-0.36414 2.54894,-0.69186 4.91609,-1.78468 7.21013,-2.98632 15.11156,-7.82888 26.50866,-19.33523 33.75493,-34.84733 3.45927,-7.39191 5.46229,-15.18424 5.57153,-23.34084 0.10923,-8.66637 -2.00245,-16.85967 -6.44489,-24.32442 -5.78972,-9.68596 -14.38385,-14.92963 -25.70841,-15.62148 h -3.31348 c -1.20164,-0.10924 -2.33003,0.58262 -3.56809,0.36413 -0.80109,-0.0364 -1.52978,0.21905 -2.25805,0.40112 -0.72827,0.29131 -1.49252,0.5095 -2.29362,0.61875 -0.80109,0.0728 -1.49309,0.36384 -2.14853,0.8008 -0.43696,0.29132 -0.91048,0.61946 -1.42026,0.80152 -0.14566,0.0728 -0.25475,0.14552 -0.40041,0.21835 -0.36413,0.18206 -0.69199,0.36426 -1.05613,0.50993 -0.14565,0.0728 -0.25475,0.14551 -0.4004,0.21833 -0.58262,0.29131 -1.05585,0.76468 -1.67487,0.91034 -0.43697,0.21847 -0.8378,0.50993 -1.20193,0.87406 -0.43696,0.50978 -0.91048,0.91005 -1.42026,1.34701 -1.82067,1.52937 -1.82067,1.52979 -3.82341,0.0733 -0.29131,-0.21848 -0.58262,-0.36427 -0.91034,-0.50992 -1.6386,-0.76469 -3.27678,-1.60233 -5.02462,-2.14854 -0.14565,-0.0728 -0.32786,-0.10952 -0.50992,-0.10952 -0.98316,-0.18207 -1.93006,-0.43639 -2.87681,-0.69129 -0.2913,-0.0728 -0.54648,-0.10966 -0.83779,-0.0733 -0.87392,0.0728 -1.71143,-0.14566 -2.54894,-0.36414 -0.87392,-0.18206 -1.78368,-0.18206 -2.69401,0 -0.94675,0.29131 -1.89364,0.47352 -2.8768,0.32787 -0.40055,-0.0728 -0.76454,-2.9e-4 -1.12867,0.0725 -0.76469,0.2913 -1.52951,0.36412 -2.3306,0.36412 -0.18207,0.0364 -0.32787,0.0367 -0.50994,0.10953 -0.58261,0.21847 -1.16536,0.21847 -1.78439,0.18207 -0.25489,0 -0.54592,0.0367 -0.80081,0.10952 -1.45654,0.25489 -2.91293,0.58247 -4.40588,0.58247 -0.40055,-0.0364 -0.76525,0.036 -1.12938,0.10882 -0.87392,0.29131 -1.78369,0.32786 -2.69402,0.32786 -0.18207,0.0364 -0.36414,0.0367 -0.54621,0.10953 -0.80109,0.2913 -1.60261,0.25503 -2.44012,0.14579 -0.40054,0 -0.7644,0.0723 -1.16495,0.14508 -2.65817,0.2549 -5.31635,0.94675 -8.01093,0.54621 -0.87393,-0.0728 -1.74828,-0.0361 -2.6222,0.10952 -0.80109,-0.0364 -2.18451,1.31074 -2.07528,-0.87406 0.0364,-0.18207 0.0725,-0.32786 0.0725,-0.50993 0,-0.98316 0.4371,-1.89321 0.69199,-2.80355 0.21849,-1.05599 0.54606,-2.1117 0.76454,-3.16768 0.0728,-0.91033 0.40069,-1.78454 0.692,-2.65846 0.61903,-2.73101 1.38371,-5.42587 2.1848,-8.12048 0.29131,-1.1288 0.51022,-2.25734 0.98359,-3.34973 0.25489,-0.72828 0.47337,-1.49281 0.72827,-2.22108 0.32772,-1.20164 0.83722,-2.36673 1.34701,-3.49554 0.0364,-0.14566 0.10938,-0.29159 0.1458,-0.47366 0.0728,-0.47338 0.32772,-0.91005 0.5462,-1.34701 0.0728,-0.14566 0.14565,-0.32801 0.18206,-0.47366 0.2913,-0.76468 0.58219,-1.52922 1.01916,-2.22108 0.32772,-0.72826 0.69198,-1.45667 1.05612,-2.14853 0.21848,-0.50978 0.4738,-1.01958 0.80152,-1.45653 0.76469,-1.3473 1.60177,-2.62149 2.47568,-3.89595 0.61904,-0.83751 1.05614,-1.7844 1.7844,-2.51267 0.2549,-0.29131 0.50965,-0.58261 0.76454,-0.91033 0.40055,-0.58261 0.87421,-1.12881 1.384,-1.6386 0.18207,-0.18207 0.32729,-0.364 0.47294,-0.58247 1.0924,-1.56578 2.51253,-2.80384 4.00548,-4.00547 0.14564,-0.0728 0.29187,-0.18236 0.40111,-0.29159 1.27447,-1.20165 2.65818,-2.22137 4.18754,-3.05887 1.3473,-0.8011 2.76728,-1.49253 4.22381,-2.11155 0.50979,-0.25489 1.01971,-0.5829 1.60233,-0.65573 0.91033,-0.25489 1.78383,-0.50965 2.65775,-0.76454 0.5462,-0.21848 1.09226,-0.36413 1.67487,-0.36413 0.14566,-0.0364 0.32801,-0.0731 0.47366,-0.10953 0.58262,-0.21848 1.16552,-0.18221 1.74813,-0.14579 0.36413,-0.0364 0.69128,-0.0723 1.05541,-0.14509 1.27447,-0.40055 2.51282,-0.40083 3.75087,0.0725 0.80109,0.21848 1.6019,0.43667 2.43942,0.43667 1.71142,-0.10924 3.13183,0.65559 4.47912,1.60233 1.05599,0.69186 2.00274,1.49295 3.09514,2.18481 1.23805,0.47337 1.8568,1.60218 2.62149,2.54894 2.11196,3.0223 4.55209,5.462 8.63038,5.27993 0.58262,-0.0728 1.16495,-0.073 1.71115,0.0363 4.04189,-0.10924 7.13717,-2.80383 8.52088,-7.46475 0,-0.65544 0.18221,-1.27403 0.32786,-1.92948 0.0728,-0.47338 0.0728,-0.94689 0,-1.42026 -0.18207,-0.61903 -0.32786,-1.27476 -0.32786,-1.9302 -0.50979,-2.14839 -1.63846,-3.85981 -3.13141,-5.46201 -3.85982,-4.18753 -8.66625,-6.69948 -14.05543,-8.33809 -4.95676,-1.47702 -9.98244,-2.04225 -15.05323,-2.0262 z m 21.66597,89.81873 c 6.04305,-0.0483 11.6985,3.91443 13.9971,11.10608 1.01958,3.20438 1.49281,6.55455 1.49281,11.61601 -0.32773,8.84845 -4.29678,17.98779 -10.37782,26.32645 -2.80383,3.85982 -6.08103,7.20999 -9.83161,10.15948 -2.07556,1.60218 -4.18754,1.85693 -6.37234,0.4004 -12.01642,-8.1566 -20.79204,-18.6435 -23.85077,-33.17245 -0.98316,-4.6245 -0.8008,-9.32182 0.65573,-13.83709 2.91307,-9.10334 13.07212,-12.89047 21.37437,-7.97467 0.80109,0.47338 1.31059,0.87407 2.25735,-0.0362 3.26355,-3.08604 7.02935,-4.55893 10.65518,-4.58794 z"
   id="XMLID_2895_"
   inkscape:connector-curvature="0"
   inkscape:export-filename="C:\Users\suitedoalex\sites\comfort-logo-4.png"
   inkscape:export-xdpi="65.654289"
   inkscape:export-ydpi="65.654289" />
		<path
   id="XMLID_2894_"
   class="st270"
   d="m 407.77578,493.96841 c -1.45654,0 -2.91307,0 -4.36961,0 -0.40054,0.0728 -0.76468,0.0364 -1.12881,-0.18207 -0.32772,-0.18206 -0.65544,-0.47337 -1.01958,-0.65544 -0.32772,-0.25489 -0.69185,-0.50979 -0.98315,-0.80109 -0.65545,-0.72827 -1.01958,-1.56578 -1.09241,-2.58535 -0.2913,-5.02505 -0.0728,-10.0501 -0.14566,-15.11155 -0.25489,-16.60451 -3.13154,-32.69922 -9.43106,-48.10209 -2.07556,-5.13428 -4.66091,-10.01367 -7.82888,-14.56535 -1.16523,-1.71143 -2.1848,-3.49568 -3.0223,-5.38918 -0.83751,-1.96632 -1.20165,-3.96906 -0.36414,-6.00821 0.47337,-0.98316 1.05598,-1.89349 1.78426,-2.731 1.71142,-1.34729 3.67775,-1.92991 5.78972,-2.00273 0.98317,0.0728 2.00274,0 2.9859,0.0364 1.23806,0.18206 2.47611,0.25489 3.64134,0.69186 4.11471,1.16522 7.68323,3.2772 10.59629,6.37234 0.94675,1.01957 1.42013,0.80109 1.78426,-0.47337 0.72827,-2.65818 2.00274,-5.06146 3.35003,-7.42834 2.1848,-3.20438 4.91581,-5.86256 8.1566,-7.97452 6.55441,-3.64134 13.36371,-4.22396 20.28225,-1.20165 5.64408,2.47611 8.55714,7.17344 9.64955,13.03599 0.87392,4.84298 0.29131,9.54031 -1.85708,14.01916 -1.45654,3.05872 -3.67776,5.42559 -6.73648,6.88213 -4.00547,1.89349 -7.13703,0.32772 -8.01094,-4.00548 -0.36414,-1.89349 -0.40055,-3.85982 -1.23806,-5.64408 -0.8375,-1.78425 -2.07556,-2.98589 -4.11471,-3.16796 -2.14839,-0.18207 -3.78699,0.8011 -4.87939,2.58535 -1.96633,3.2408 -2.76742,6.84572 -2.62176,10.5963 0.25489,6.5544 2.11196,12.7811 3.60491,19.08061 1.71144,7.24626 3.45928,14.49253 4.36961,21.92085 0.91034,7.35551 0.54621,14.52894 -2.91306,21.26542 -0.87393,1.67502 -1.92992,3.24079 -3.13156,4.66091 -0.87392,0.76468 -1.71143,1.56578 -2.47611,2.4397 -1.38371,1.3473 -3.02231,2.33046 -4.6245,3.35003 -1.27447,0.47338 -2.43969,1.63861 -4.00547,1.0924 z"
   inkscape:connector-curvature="0"
   style="fill:#23215b;stroke-width:0.36413383"
   inkscape:export-filename="C:\Users\suitedoalex\sites\comfort-logo-4.png"
   inkscape:export-xdpi="65.654289"
   inkscape:export-ydpi="65.654289" />
		
		
		
		
		
		
		
		
		
		
		
		
		
		
		
		
		
		
		
		
		
		
		
		
		
		
		
		
		
		
		
		
		
		
		
		
		
		
		
		
		
		
		
		
		
		
		
		
		
		
		
		
		
		
		
		
		
		
		
		
		
		
		
		
		
		
		
		
		
		<path
   id="XMLID_2824_"
   class="st265"
   d="m 115.41273,347.95074 c -1.09241,0.58262 -2.22122,1.20165 -3.31362,1.78426 v 0 c -1.31088,0.32772 -2.65818,0.29131 -3.96906,0.0364 -0.68167,-0.14711 -0.57387,-0.0335 -1.10551,-0.21993 -1.51042,-0.38309 -3.08203,-1.41868 -4.13802,-2.69314 -1.71142,-2.03915 -3.05872,-4.36961 -4.770147,-6.40876 -6.772893,-7.97453 -15.330038,-12.89033 -25.525783,-15.11155 -7.938117,-1.74784 -15.912645,-1.74784 -23.850766,-0.40055 -8.848453,1.45654 -16.932226,4.87939 -24.287729,9.97727 -12.562614,8.66638 -20.8284483,20.6828 -26.5453483,34.59271 -5.13429,12.45338 -8.0109507,25.41655 -8.9941127,38.85308 -1.019576,13.65502 0.291313,27.01873 5.0978747,39.94548 5.27994204,14.16481 14.055572,25.5622 27.3100423,33.17259 9.248995,5.31636 19.226261,8.19301 30.004621,8.30225 9.467486,0.10925 18.425174,-1.82067 26.945905,-5.93537 1.38371,-0.65545 2.840244,-1.056 4.369609,-1.27447 2.22121,-0.29131 4.296778,0.14565 5.680482,2.07556 1.383709,1.92991 1.456541,4.0783 0.546202,6.22669 -0.728264,1.71142 -1.966324,3.05872 -3.386446,4.22395 -0.983156,0.83751 -1.966318,1.60218 -3.095136,2.25763 -8.120185,5.06146 -17.077876,7.6104 -26.436114,8.9941 -2.876654,0.43697 -5.753316,0.69186 -8.666385,0.58262 -0.910331,-0.0364 -1.784255,0.18207 -2.694594,0.40054 -1.383704,0.21848 -2.767408,0.21848 -4.187535,0 -1.929908,-0.61902 -3.932646,-0.2913 -5.898968,-0.40054 h -0.619026 c -0.764679,-0.14565 -1.49295,-0.47338 -2.257636,-0.29131 -0.400543,0 -0.764671,-0.0364 -1.165221,-0.10924 -0.837509,-0.2549 -1.638603,-0.43696 -2.512526,-0.21848 -0.873924,0.0728 -1.711425,-0.14566 -2.548934,-0.40055 -0.619026,-0.21847 -1.201644,-0.47337 -1.857085,-0.32772 -0.655441,0 -1.310882,-0.14565 -1.8935,-0.40055 -0.582611,-0.2913 -1.201637,-0.43696 -1.857077,-0.47337 -14.0191573,-3.31362 -26.8366623,-9.17617 -38.270466,-17.91538 -14.92949,-11.43381 -25.5622,-26.1084 -32.00736,-43.76889 -4.6245,-12.70827 -6.66365,-25.8535 -5.89897,-39.32645 1.3473,-23.88718 9.32183,-45.29825 25.19806,-63.3957 11.94359,-13.58219 26.7638377,-23.04968 43.878123,-28.94865 8.120181,-2.80383 16.49526,-4.6609 25.052415,-5.35276 19.444736,-1.56577 38.124804,1.3473 55.676058,10.15933 5.534833,2.76743 10.705533,6.19028 15.184373,10.55989 1.45654,1.82067 3.31363,3.2772 4.84298,5.02504 0.32773,0.58262 0.76469,1.0924 1.20165,1.56577 0.5462,0.98317 1.71142,1.67503 1.49294,3.05873 0.43697,1.0924 0.87393,2.22122 1.31089,3.31362 0.50978,3.02232 0.18207,5.86256 -2.03915,8.26584 z"
   inkscape:connector-curvature="0"
   style="fill:#23225b;stroke-width:0.36413383"
   sodipodi:nodetypes="cccccccccccccccccccccccccccccccccccccccccccccccc"
   inkscape:export-filename="C:\Users\suitedoalex\sites\comfort-logo-4.png"
   inkscape:export-xdpi="65.654289"
   inkscape:export-ydpi="65.654289" />
		
		
		
		
		
		
		
		
		
		
		
		
		
		
		
		
		
		
		
		
		
		
		
		
		
		
		
		
		
		
		
		
		
		
		
		
		
		
		
		
		
		
		
		
		
		
		
		
		
		
		
		
		
		
		
		
		
		
		
		
		
		
		
		
		
		
		
		
		
		
		
		
		
		
		
		
		
		
		
		
		
		
		
		
		
		
		
		
		
		
		
		
		
		
		
		
		
		
		
		
		
		
		
		<path
   id="XMLID_2720_"
   class="st265"
   d="m 150.69729,496.18962 c -2.51252,-0.0728 -4.29678,-1.45653 -5.78972,-3.31361 -0.58262,-0.47338 -0.76469,-1.12882 -0.91034,-1.78425 -0.50979,-2.9859 0.61903,-5.60767 1.71143,-8.22944 3.82341,-9.06692 7.35551,-18.2431 9.86802,-27.74699 1.78427,-6.70006 3.16797,-13.47295 3.16797,-20.4279 0,-2.14839 -0.40054,-4.22396 -1.12881,-6.22669 -1.56577,-4.29678 -6.19028,-5.78973 -9.94085,-3.16797 -2.54895,1.74785 -3.96906,4.3696 -4.98864,7.20985 -2.18481,6.2631 -3.60493,12.70827 -5.31635,19.11703 -1.71143,6.37234 -3.5321,12.74468 -6.29952,18.7893 -2.84024,6.19028 -6.8093,11.47021 -12.85392,14.92948 -1.49295,1.20165 -3.38645,1.52937 -5.09788,2.29406 -1.12881,0.21847 -2.22121,0.43695 -3.35003,0.61902 -0.2913,0.0364 -0.58261,0.14565 -0.87392,0.18207 -1.45653,0.0364 -2.91307,-0.0364 -4.36961,0.0728 -0.47337,0.0728 -0.98316,-0.0364 -1.45653,-0.10923 -5.27994,-1.09241 -7.246264,-4.77016 -5.207115,-9.75879 0.619027,-1.52936 1.492952,-2.91307 2.257635,-4.33319 8.84845,-16.09472 14.38328,-33.24542 16.56809,-51.45211 1.01957,-8.59356 0.50979,-17.18712 -1.20165,-25.67144 -0.40054,-2.03915 -0.8375,-4.07829 -0.0364,-6.08103 0.54621,-1.38371 1.27447,-2.65818 3.13155,-2.4397 3.38645,-0.58262 6.40876,0.50978 9.39466,1.85708 0.33765,0.15826 0.34293,0.1569 0.61903,0.32772 0.57799,0.27144 0.57135,0.24759 1.3036,0.58923 1.0818,0.56612 1.75512,0.94014 2.51979,1.59558 3.75059,3.31362 6.00822,7.53757 7.42834,12.23489 0.5462,1.74785 0.5462,1.78426 2.00274,0.58262 4.9158,-4.04189 10.41422,-6.55441 16.85939,-6.70007 0.58262,0 1.23806,-0.21848 1.67502,0.36413 3.49568,0.36414 6.95495,0.91034 10.23215,2.18481 8.12019,4.87939 11.28816,9.46748 12.92675,18.7893 0.80111,0.0728 0.91035,-0.69184 1.23807,-1.0924 5.42559,-6.95495 12.38055,-11.06967 21.41106,-10.59629 10.08651,0.5462 16.8594,6.00821 20.86487,15.07514 3.45927,7.82888 3.85983,16.09471 3.24079,24.43338 -0.80108,10.70553 -2.76741,21.229 -6.48158,31.35192 -1.52936,4.22395 -3.38645,8.26584 -5.78973,12.08924 -3.93264,6.2267 -9.10334,10.81478 -16.45884,12.4898 -2.03915,0.43696 -4.11472,0.36413 -6.15386,0.0364 -2.1848,-0.14565 -3.93265,-1.01957 -5.02505,-2.9859 -0.98316,-0.50978 -0.94675,-1.45653 -1.05598,-2.36686 -0.21849,-2.58535 0.61902,-4.8794 1.63859,-7.17344 4.95222,-11.17891 8.88487,-22.68554 11.32457,-34.70196 0.76467,-3.8234 1.20164,-7.68322 1.49294,-11.54304 0.21849,-2.87666 -0.14565,-5.7169 -1.20164,-8.41149 -1.60219,-4.0783 -5.31635,-5.35276 -9.21259,-3.2772 -2.65818,1.42012 -4.15112,3.8234 -5.38918,6.40875 -1.12881,2.36688 -1.71143,4.91581 -2.40328,7.42834 -2.51252,9.5403 -4.40602,19.26267 -7.71964,28.62091 -2.4397,6.91855 -6.37234,12.63545 -12.30772,16.96863 -1.60219,1.16523 -3.27721,2.33046 -5.35277,2.54895 -0.87392,-0.10925 -1.60219,0.43695 -2.47611,0.47337 -0.18207,0.0364 -0.40054,0.0728 -0.58261,0.10924 -0.69186,0.32772 -1.49295,-0.0728 -2.22122,0.2913 v 0 c -0.58262,0.36414 -1.16523,0.36414 -1.78426,0 v 0 c -0.69185,-0.58261 -1.60218,-0.0728 -2.43969,-0.47336 z"
   inkscape:connector-curvature="0"
   style="fill:#23225b;stroke-width:0.36413383"
   sodipodi:nodetypes="cccccsccccccccccccccccccccccccccccccccccccccccccccccccccccccc"
   inkscape:export-filename="C:\Users\suitedoalex\sites\comfort-logo-4.png"
   inkscape:export-xdpi="65.654289"
   inkscape:export-ydpi="65.654289" />
		
		
		
		
		
		
		
		
		
		
		
		
		
		
		
		
		
		
		
		
		
		
		<path
   style="fill:#23225b;stroke-width:0.36413383"
   d="m 61.602518,372.53032 c -2.041424,-0.0233 -4.096073,0.0538 -6.162532,0.21763 -0.728271,0.36414 -1.602334,-0.1091 -2.330598,0.32786 -0.546203,0.40055 -1.274467,-0.10924 -1.82067,0.36414 -0.218483,0.10923 -0.437246,0.25517 -0.655729,0.29159 -8.156596,1.82067 -15.402581,5.53455 -21.374371,11.36069 -12.59903,12.30772 -18.352205,27.383 -17.332629,44.93426 0.691856,11.17891 4.915807,20.93797 12.92675,28.87609 8.156596,8.08377 18.279095,11.87077 29.603658,12.56262 14.711003,0.91033 27.419277,-3.89624 37.50578,-14.56535 12.635443,-13.40013 17.661063,-29.53126 14.602333,-47.70153 -2.69459,-15.98548 -11.652702,-27.38344 -27.019152,-33.35523 -5.817037,-2.26674 -11.818559,-3.24278 -17.94284,-3.31277 z m 4.347564,15.59588 c 5.852328,0.0273 10.962564,3.88685 12.940262,10.62104 1.019575,3.42286 1.383566,6.91898 1.310742,10.45108 -0.691859,12.7811 -3.204812,25.08838 -10.45107,35.97599 -2.840244,4.26036 -6.37177,7.79233 -11.25116,9.68582 -6.70007,2.58535 -13.655309,-0.0364 -17.041752,-6.37234 -2.184805,-4.11471 -2.949771,-8.59328 -2.840526,-13.18136 0.327713,-12.92676 3.8234,-24.94346 10.559877,-35.97671 2.184798,-3.5321 4.952222,-6.59068 8.557147,-8.77548 2.742382,-1.66137 5.55633,-2.44044 8.21648,-2.42804 z"
   id="XMLID_2697_"
   inkscape:connector-curvature="0"
   inkscape:export-filename="C:\Users\suitedoalex\sites\comfort-logo-4.png"
   inkscape:export-xdpi="65.654289"
   inkscape:export-ydpi="65.654289" />
		
		
		
		
		
		
		
		
		
		
		
		
		
		
		
		
		
		
	</g>
</g>
</svg>